<?xml version="1.0" standalone="no"?>
<!DOCTYPE svg PUBLIC "-//W3C//DTD SVG 20010904//EN"
 "http://www.w3.org/TR/2001/REC-SVG-20010904/DTD/svg10.dtd">
<svg version="1.0" xmlns="http://www.w3.org/2000/svg"
 width="512.000000pt" height="512.000000pt" viewBox="0 0 512.000000 512.000000"
 preserveAspectRatio="xMidYMid meet">
<metadata>
Created by potrace 1.14, written by Peter Selinger 2001-2017
</metadata>
<g transform="translate(0.000000,512.000000) scale(0.100000,-0.100000)"
fill="#000000" stroke="none">
<path d="M4600 4959 c-217 -89 -408 -167 -425 -174 -16 -7 -160 -66 -320 -131
-159 -64 -425 -172 -590 -239 -165 -67 -442 -179 -615 -250 -173 -70 -328
-133 -345 -140 -16 -7 -55 -23 -85 -35 -30 -12 -68 -28 -85 -35 -16 -7 -100
-41 -185 -75 -85 -34 -168 -67 -185 -75 -16 -7 -86 -36 -155 -63 -69 -28 -213
-86 -320 -130 -278 -113 -540 -220 -810 -329 -129 -52 -248 -101 -265 -108
-16 -7 -64 -27 -105 -44 -56 -23 -80 -39 -94 -62 -21 -36 -16 -85 13 -115 10
-10 215 -133 457 -273 l439 -254 70 -151 c68 -149 124 -271 192 -416 19 -41
103 -221 185 -400 83 -179 184 -397 225 -485 41 -88 77 -165 80 -172 7 -18 66
-42 93 -39 40 6 53 14 90 63 19 25 40 50 45 57 6 6 67 83 135 171 69 88 129
165 135 171 5 7 64 82 130 167 66 86 124 156 128 157 7 0 320 -178 407 -231
17 -10 222 -128 283 -163 23 -13 91 -52 150 -86 115 -66 156 -77 199 -52 31
18 31 17 106 202 32 80 82 201 110 270 28 69 78 193 112 275 33 83 65 159 70
170 5 11 108 265 230 565 122 300 225 554 230 565 5 11 32 76 60 145 28 69 55
134 60 145 5 11 34 83 65 160 144 357 274 675 500 1225 53 129 99 248 102 264
10 60 -42 117 -104 116 -10 -1 -196 -73 -413 -161z m140 -369 c0 -5 -8 -10
-17 -10 -15 0 -16 2 -3 10 19 12 20 12 20 0z m-740 -94 c0 -5 -65 -46 -74 -46
-3 0 -6 4 -6 9 0 7 25 20 78 40 1 1 2 -1 2 -3z m240 -101 c-12 -13 -27 -22
-32 -19 -5 4 3 14 19 24 38 25 40 24 13 -5z"/>
<path d="M646 2145 c-34 -18 -307 -288 -324 -322 -35 -64 4 -132 80 -140 l47
-5 168 168 c144 145 169 174 171 202 3 43 -24 89 -61 102 -39 13 -47 13 -81
-5z"/>
<path d="M90 1583 c-104 -38 -77 -196 32 -189 74 6 114 74 83 140 -22 46 -69
66 -115 49z"/>
<path d="M1130 1252 c-27 -4 -799 -769 -824 -817 -41 -78 38 -166 122 -134 40
15 818 799 823 829 7 40 -1 67 -27 93 -26 26 -54 35 -94 29z"/>
<path d="M2497 965 c-48 -25 -543 -528 -549 -558 -6 -30 15 -85 40 -103 9 -7
36 -14 60 -14 43 0 43 0 299 255 141 140 265 267 275 282 32 49 18 107 -32
136 -35 21 -57 21 -93 2z"/>
<path d="M83 203 c-12 -3 -34 -18 -49 -36 -64 -77 20 -187 114 -148 34 14 55
46 58 89 1 26 -5 41 -30 65 -32 32 -49 37 -93 30z"/>
<path d="M1713 187 c-40 -18 -59 -73 -42 -124 24 -75 145 -79 178 -6 40 87
-47 170 -136 130z"/>
</g>
</svg>
